ffmpeg version 1.2 Copyright (c) 2000-2013 the FFmpeg developers
  built on Oct  3 2013 15:56:35 with gcc 4.6 (Ubuntu/Linaro 4.6.3-1ubuntu5)
  configuration: --prefix=/home/paol/ffmpeg_build --extra-cflags=-I/home/paol/ffmpeg_build/include --extra-ldflags=-L/home/paol/ffmpeg_build/lib --bindir=/usr/local/bin --extra-libs=-ldl --enable-gpl --enable-libvorbis --enable-libvpx --enable-libx264 --enable-nonfree --enable-libfdk-aac
  libavutil      52. 18.100 / 52. 18.100
  libavcodec     54. 92.100 / 54. 92.100
  libavformat    54. 63.104 / 54. 63.104
  libavdevice    54.  3.103 / 54.  3.103
  libavfilter     3. 42.103 /  3. 42.103
  libswscale      2.  2.100 /  2.  2.100
  libswresample   0. 17.102 /  0. 17.102
  libpostproc    52.  2.100 / 52.  2.100
[alsa @ 0x2102760] Estimating duration from bitrate, this may be inaccurate
Guessed Channel Layout for  Input Stream #0.0 : stereo
Input #0, alsa, from 'default':
  Duration: N/A, start: 1527023134.042643, bitrate: 1536 kb/s
    Stream #0:0: Audio: pcm_s16le, 48000 Hz, stereo, s16, 1536 kb/s
[video4linux2,v4l2 @ 0x212a4c0] The driver changed the time per frame from 1/25 to 1/24
[video4linux2,v4l2 @ 0x212a4c0] Estimating duration from bitrate, this may be inaccurate
Input #1, video4linux2,v4l2, from '/dev/video1':
  Duration: N/A, start: 5851.587577, bitrate: 117964 kb/s
    Stream #1:0: Video: rawvideo (YUY2 / 0x32595559), yuyv422, 640x480, 117964 kb/s, 24 fps, 24 tbr, 1000k tbn, 1000k tbc
[libx264 @ 0x212c0e0] using cpu capabilities: none!
[libx264 @ 0x212c0e0] profile High 4:2:2, level 3.0, 4:2:2 8-bit
[libx264 @ 0x212c0e0] 264 - core 135 r2 f0c1c53 - H.264/MPEG-4 AVC codec - Copyleft 2003-2013 - http://www.videolan.org/x264.html - options: cabac=1 ref=3 deblock=1:0:0 analyse=0x3:0x113 me=hex subme=7 psy=1 psy_rd=1.00:0.00 mixed_ref=1 me_range=16 chroma_me=1 trellis=1 8x8dct=1 cqm=0 deadzone=21,11 fast_pskip=1 chroma_qp_offset=-2 threads=18 lookahead_threads=3 sliced_threads=0 nr=0 decimate=1 interlaced=0 bluray_compat=0 constrained_intra=0 bframes=3 b_pyramid=2 b_adapt=1 b_bias=0 direct=1 weightb=1 open_gop=0 weightp=2 keyint=250 keyint_min=25 scenecut=40 intra_refresh=0 rc_lookahead=40 rc=crf mbtree=1 crf=23.0 qcomp=0.60 qpmin=0 qpmax=69 qpstep=4 ip_ratio=1.40 aq=1:1.00
Output #0, mp4, to '/home/paol/recordings/readyToUpload/SPRING18/PAOL_001232_FA17_CNAC/05-22-18--21-05-34/videoLarge.mp4':
  Metadata:
    encoder         : Lavf54.63.104
    Stream #0:0: Video: h264 ([33][0][0][0] / 0x0021), yuv422p, 640x480, q=-1--1, 12800 tbn, 25 tbc
    Stream #0:1: Audio: aac ([64][0][0][0] / 0x0040), 48000 Hz, stereo, s16, 139 kb/s
Stream mapping:
  Stream #1:0 -> #0:0 (rawvideo -> libx264)
  Stream #0:0 -> #0:1 (pcm_s16le -> libfdk_aac)
Press [q] to stop, [?] for help
frame=   13 fps=0.0 q=0.0 size=       0kB time=00:00:00.74 bitrate=   0.5kbits/s    frame=   25 fps= 24 q=0.0 size=       0kB time=00:00:01.23 bitrate=   0.3kbits/s    frame=   37 fps= 24 q=0.0 size=       0kB time=00:00:01.74 bitrate=   0.2kbits/s    frame=   49 fps= 24 q=0.0 size=       0kB time=00:00:02.23 bitrate=   0.2kbits/s    frame=   62 fps= 24 q=0.0 size=       0kB time=00:00:02.75 bitrate=   0.1kbits/s    frame=   74 fps= 24 q=28.0 size=      25kB time=00:00:03.26 bitrate=  63.7kbits/s    frame=   86 fps= 24 q=28.0 size=      37kB time=00:00:03.75 bitrate=  81.3kbits/s    frame=   98 fps= 24 q=28.0 size=      49kB time=00:00:04.24 bitrate=  93.7kbits/s    frame=  110 fps= 24 q=28.0 size=      60kB time=00:00:04.75 bitrate= 103.4kbits/s    frame=  122 fps= 24 q=28.0 size=      71kB time=00:00:05.26 bitrate= 110.0kbits/s    frame=  134 fps= 24 q=28.0 size=      82kB time=00:00:05.78 bitrate= 115.9kbits/s    frame=  146 fps= 24 q=28.0 size=      92kB time=00:00:06.29 bitrate= 120.3kbits/s    frame=  158 fps= 24 q=28.0 size=     103kB time=00:00:06.78 bitrate= 124.7kbits/s    frame=  170 fps= 24 q=28.0 size=     114kB time=00:00:07.29 bitrate= 127.6kbits/s    frame=  183 fps= 24 q=28.0 size=     125kB time=00:00:07.80 bitrate= 131.4kbits/s    frame=  195 fps= 24 q=28.0 size=     135kB time=00:00:08.31 bitrate= 133.3kbits/s    frame=  207 fps= 24 q=28.0 size=     146kB time=00:00:08.81 bitrate= 135.8kbits/s    frame=  219 fps= 24 q=28.0 size=     156kB time=00:00:09.30 bitrate= 137.8kbits/s    frame=  231 fps= 24 q=28.0 size=     167kB time=00:00:09.79 bitrate= 139.9kbits/s    frame=  243 fps= 24 q=28.0 size=     177kB time=00:00:10.30 bitrate= 141.1kbits/s    frame=  255 fps= 24 q=28.0 size=     188kB time=00:00:10.79 bitrate= 142.6kbits/s    frame=  267 fps= 24 q=28.0 size=     198kB time=00:00:11.30 bitrate= 143.6kbits/s    frame=  279 fps= 24 q=28.0 size=     209kB time=00:00:11.81 bitrate= 144.6kbits/s    frame=  291 fps= 24 q=28.0 size=     219kB time=00:00:12.30 bitrate= 145.5kbits/s    frame=  303 fps= 24 q=28.0 size=     229kB time=00:00:12.82 bitrate= 146.3kbits/s    frame=  315 fps= 24 q=28.0 size=     256kB time=00:00:13.31 bitrate= 157.6kbits/s    frame=  327 fps= 24 q=28.0 size=     268kB time=00:00:13.82 bitrate= 158.6kbits/s    frame=  339 fps= 24 q=28.0 size=     278kB time=00:00:14.31 bitrate= 159.3kbits/s    frame=  352 fps= 24 q=28.0 size=     290kB time=00:00:14.82 bitrate= 160.2kbits/s    frame=  364 fps= 24 q=28.0 size=     301kB time=00:00:12.00 bitrate= 205.2kbits/s    frame=  375 fps= 23 q=32764.0 Lsize=     383kB time=00:00:15.01 bitrate= 208.8kbits/s    
video:109kB audio:257kB subtitle:0 global headers:0kB muxing overhead 4.618629%
[libx264 @ 0x212c0e0] frame I:2     Avg QP:21.44  size: 14522
[libx264 @ 0x212c0e0] frame P:94    Avg QP:21.89  size:   513
[libx264 @ 0x212c0e0] frame B:279   Avg QP:22.76  size:   121
[libx264 @ 0x212c0e0] consecutive B-frames:  0.8%  0.0%  0.0% 99.2%
[libx264 @ 0x212c0e0] mb I  I16..4: 43.4% 28.7% 28.0%
[libx264 @ 0x212c0e0] mb P  I16..4:  0.4%  0.0%  0.0%  P16..4: 14.5%  0.3%  1.3%  0.0%  0.0%    skip:83.4%
[libx264 @ 0x212c0e0] mb B  I16..4:  0.0%  0.0%  0.0%  B16..8:  5.7%  0.0%  0.0%  direct: 0.0%  skip:94.2%  L0:37.5% L1:62.5% BI: 0.0%
[libx264 @ 0x212c0e0] 8x8 transform intra:24.2% inter:92.9%
[libx264 @ 0x212c0e0] coded y,uvDC,uvAC intra: 37.3% 46.5% 22.2% inter: 0.2% 4.5% 0.1%
[libx264 @ 0x212c0e0] i16 v,h,dc,p:  1% 58%  1% 39%
[libx264 @ 0x212c0e0] i8 v,h,dc,ddl,ddr,vr,hd,vl,hu:  6% 46% 26%  3%  3%  3%  6%  2%  6%
[libx264 @ 0x212c0e0] i4 v,h,dc,ddl,ddr,vr,hd,vl,hu: 11% 57% 11%  2%  3%  3%  5%  3%  5%
[libx264 @ 0x212c0e0] i8c dc,h,v,p: 62% 23% 13%  2%
[libx264 @ 0x212c0e0] Weighted P-Frames: Y:0.0% UV:0.0%
[libx264 @ 0x212c0e0] ref P L0: 65.8%  0.5% 22.8% 10.9%
[libx264 @ 0x212c0e0] ref B L0: 82.0% 17.0%  1.0%
[libx264 @ 0x212c0e0] ref B L1: 96.0%  4.0%
[libx264 @ 0x212c0e0] kb/s:59.21
